<?xml version="1.0" ?><svg xmlns="http://www.w3.org/2000/svg" xmlns:xlink="http://www.w3.org/1999/xlink" id="Layer_2" data-name="Layer 2" viewBox="0 0 1920 1080"><defs><style>.cls-1{fill:none;}.cls-2{fill:#e29aad;}.cls-3{fill:#ffb6c8;}.cls-4{fill:#5774cd;}.cls-5{fill:#88b0ea;}.cls-6{fill:#fff;}.cls-7{fill:#4e7ec4;}.cls-8{fill:#ffae01;}.cls-9{fill:#d68900;}.cls-10{fill:#295682;}.cls-11{fill:#969617;}.cls-12{clip-path:url(#clip-path);}.cls-13{fill:#f2b3c1;}.cls-14{fill:#ffd180;}.cls-15{fill:#1e1814;}</style><clipPath id="clip-path"><path class="cls-1" d="M884.4,831.63,594.23,737.57a9.1,9.1,0,0,1-5.84-11.46L641,563.69a9.09,9.09,0,0,1,11.45-5.84l290.17,94.06a9.09,9.09,0,0,1,5.85,11.45L895.86,825.78A9.1,9.1,0,0,1,884.4,831.63Z"/></clipPath></defs><path class="cls-2" d="M865.88,449l-35.3,73.33s6.45,31.95-8.77,50.95-14.72-.16-14.72-.16-27.54-27-27.5-40.56c0-4.55,15.55-19,19.11-26.6,2.39-5.13,25.31-62.69,25.31-62.69Z"/><path class="cls-2" d="M805.51,581l16-18.64a7.72,7.72,0,0,0-.79-10.69h0a7.1,7.1,0,0,0-10.51,1l-14.69,19.79a6.82,6.82,0,0,0,1.35,9.37h0A6.24,6.24,0,0,0,805.51,581Z"/><path class="cls-2" d="M784.29,564.22l17.88-23.42a6.55,6.55,0,0,1,8.29-1.78l.6.31A7.15,7.15,0,0,1,813.45,550L795,573.12a6.58,6.58,0,0,1-9.14,1.08h0A7.13,7.13,0,0,1,784.29,564.22Z"/><path class="cls-2" d="M778.67,562.09h0a5.7,5.7,0,0,0,7.7-1.17l12.45-15.11a6.69,6.69,0,0,0,0-8.5l-1-1.18a5.71,5.71,0,0,0-9.14.53L777.19,553A6.61,6.61,0,0,0,778.67,562.09Z"/><path class="cls-2" d="M774,551h0a4.93,4.93,0,0,0,6-1.28L790.07,537a4.93,4.93,0,0,0-1-6.89L787.73,529a5,5,0,0,0-7.38,1l-8.68,13.79A5.05,5.05,0,0,0,774,551Z"/><path d="M794.92,548.14a.77.77,0,0,1,1.11,0,.89.89,0,0,1,0,1.2c-.66.74-7.94,9.86-11.7,14.58a.76.76,0,0,1-1.12.11.89.89,0,0,1-.08-1.2c.44-.56,10.9-13.7,11.75-14.65Z"/><path d="M805.08,557a.75.75,0,0,1,1.11,0,.9.9,0,0,1,0,1.2c-.72.81-8.93,11.53-13.16,17.08a.76.76,0,0,1-1.12.13.89.89,0,0,1-.11-1.2c.5-.65,12.3-16.11,13.24-17.18Z"/><path d="M786.52,538.73a.77.77,0,0,1,1.13,0,.89.89,0,0,1,0,1.2c-.87.94-6.86,8.89-9.9,13a.76.76,0,0,1-1.12.14.88.88,0,0,1-.12-1.19c.36-.48,8.87-11.87,10-13.1Z"/><path d="M821.69,560.87c.54-.58,1.22-.86,1.57-.62s.23,1-.33,1.68l-13.84,16.73c-.56.67-1.32,1-1.69.76s-.23-1,.33-1.68L821.57,561Z"/><polygon class="cls-3" points="870.76 218.74 866.26 255.92 890.32 254.07 870.76 218.74"/><path class="cls-4" d="M1107.09,243.81l-5.11-3.95,46.59-60.3,5.11,3.95a2.77,2.77,0,0,1,.5,3.88L1111,243.31A2.76,2.76,0,0,1,1107.09,243.81Z"/><path class="cls-5" d="M1108.78,246a4.35,4.35,0,0,1-2.66-.91h0l-5.11-3.95a1.59,1.59,0,0,1-.29-2.23l46.59-60.3a1.59,1.59,0,0,1,2.23-.29l5.11,3.95a4.34,4.34,0,0,1,1.66,2.9,4.27,4.27,0,0,1-.88,3.21l-43.2,55.93A4.35,4.35,0,0,1,1108.78,246Zm-.72-3.42a1.19,1.19,0,0,0,1.66-.22l43.2-55.92a1.19,1.19,0,0,0,.24-.87,1.21,1.21,0,0,0-.45-.79l-3.86-3-44.64,57.79Z"/><path class="cls-6" d="M1101.49,239.48l-3.65-2.81a3.18,3.18,0,0,1-.57-4.46l42.7-55.28a3.18,3.18,0,0,1,4.46-.57l3.65,2.82a3.18,3.18,0,0,1,.57,4.46L1106,238.91A3.17,3.17,0,0,1,1101.49,239.48Z"/><path class="cls-5" d="M1103.43,241.73a4.72,4.72,0,0,1-2.91-1l-3.65-2.81a4.77,4.77,0,0,1-.85-6.69L1138.71,176a4.77,4.77,0,0,1,3.17-1.81,4.66,4.66,0,0,1,3.52,1l3.65,2.81a4.78,4.78,0,0,1,.86,6.69l-42.7,55.27A4.76,4.76,0,0,1,1103.43,241.73Zm39.06-64.44h-.21a1.55,1.55,0,0,0-1,.61l-42.7,55.27a1.55,1.55,0,0,0-.32,1.17,1.57,1.57,0,0,0,.6,1.06l3.65,2.82h0a1.59,1.59,0,0,0,2.23-.29l42.7-55.27a1.59,1.59,0,0,0-.28-2.23l-3.65-2.82A1.56,1.56,0,0,0,1142.49,177.29Z"/><path d="M1145.79,195.44a1.58,1.58,0,0,1-1.25-2.56l3.3-4.27a1.59,1.59,0,1,1,2.52,1.94l-3.31,4.27A1.57,1.57,0,0,1,1145.79,195.44Z"/><path d="M1139.67,203.37a1.59,1.59,0,0,1-1.26-2.56l3.33-4.3a1.59,1.59,0,0,1,2.51,1.94l-3.33,4.31A1.58,1.58,0,0,1,1139.67,203.37Z"/><path class="cls-2" d="M1111.32,253.33s1.55-22.93,14.44-32.59,25.59-21.19,28.39-13.83c7,18.49-11.16,44.32-18.86,54.41S1111.32,253.33,1111.32,253.33Z"/><path class="cls-2" d="M1127.39,232.54,1118.75,209a6.32,6.32,0,0,1,2.68-7.59h0a6.31,6.31,0,0,1,9,2.7l7.72,16.24Z"/><path class="cls-2" d="M1134.61,226.25,1126,199.67a7,7,0,0,1,3.32-8.34h0a7,7,0,0,1,9.86,3.4l7.89,18.44Z"/><path class="cls-2" d="M1141.84,223.16,1136,193.75a8.18,8.18,0,0,1,3.94-8.8h0c3.69-1.9,7.93.14,9.15,4.39l5.91,20.53Z"/><path d="M1138.1,222a1.59,1.59,0,0,1-1.43-.91L1129,204.83a4.73,4.73,0,0,0-3-2.53,1.58,1.58,0,1,1,.86-3.05,7.9,7.9,0,0,1,5,4.21l7.73,16.24a1.58,1.58,0,0,1-.75,2.11A1.55,1.55,0,0,1,1138.1,222Z"/><path d="M1147.67,216.25a1.57,1.57,0,0,1-1.49-1l-7.44-20.14a6,6,0,0,0-3.47-3.5,1.59,1.59,0,0,1,1.14-3,9.14,9.14,0,0,1,5.31,5.37l7.44,20.14a1.59,1.59,0,0,1-.94,2A1.52,1.52,0,0,1,1147.67,216.25Z"/><path d="M1127.39,234.13a1.57,1.57,0,0,1-1.46-1l-4.43-10.61a1.58,1.58,0,1,1,2.92-1.22l4.44,10.6a1.59,1.59,0,0,1-1.47,2.2Z"/><polygon class="cls-2" points="877.68 852.33 934.29 802.61 874.89 756.61 831.77 797.28 877.68 852.33"/><path class="cls-7" d="M969.51,230.28l17.3,152.23s30,37.38,66.13,36.42l-1.55-97C1009.39,236.52,969.51,230.28,969.51,230.28Z"/><path class="cls-7" d="M1137,260l-17.3-8.08s-21.65-4.88-31.43,11.54c-4.92,8.25-36.91,58.53-36.91,58.53l1.55,97c10.31-.27,21.13-3.65,31.9-11.91,26-19.9,54-84.09,59.39-113.89S1137,260,1137,260Z"/><circle class="cls-7" cx="1052" cy="370.4" r="49"/><path class="cls-5" d="M1079.61,797.39l58.28,159.29L1295.27,851l-15.5-26.42a27.13,27.13,0,0,0-36.69-9.93l-60.39,33.9-36.45-74.62Z"/><polygon class="cls-2" points="1168.04 818.56 1146.24 773.93 1079.61 797.39 1100.82 855.36 1168.04 818.56"/><path d="M1180.07,865.29l-.23,0a1.58,1.58,0,0,1-1.34-1.8l5.44-38.1a1.59,1.59,0,0,1,2.91-.62l15.38,24.41,2.69-29.92a1.58,1.58,0,0,1,1.2-1.4,1.6,1.6,0,0,1,1.72.68l12.05,18.66a1.59,1.59,0,0,1-2.67,1.72l-9.55-14.78-2.69,30a1.59,1.59,0,0,1-2.93.71l-15.58-24.73-4.83,33.82A1.58,1.58,0,0,1,1180.07,865.29Z"/><polygon points="1151.17 784.02 1146.24 773.93 1079.61 797.39 1089.99 825.75 1151.17 784.02"/><path d="M1132.79,940.3a1.61,1.61,0,0,1-1.2-.68,1.58,1.58,0,0,1,.41-2.21l152.86-105.35a1.6,1.6,0,0,1,2.21.41,1.58,1.58,0,0,1-.41,2.21L1133.8,940A1.61,1.61,0,0,1,1132.79,940.3Z"/><path class="cls-6" d="M1159.91,882.05a18.32,18.32,0,1,1-16.43-20A18.32,18.32,0,0,1,1159.91,882.05Z"/><polygon class="cls-8" points="1008 376 902 407 988.73 637.92 1095.76 594.28 1008 376"/><polygon class="cls-8" points="1166 769 1095.76 594.28 988.73 637.92 1059 825 1166 769"/><circle class="cls-8" cx="1042" cy="615" r="58"/><path class="cls-9" d="M1058.27,799.2a1.58,1.58,0,0,1-.73-3l92.61-47.7a1.59,1.59,0,1,1,1.45,2.82L1059,799A1.55,1.55,0,0,1,1058.27,799.2Z"/><polygon class="cls-2" points="980.79 194.97 972.67 219.48 941.18 208.93 949.3 181.72 980.79 194.97"/><polygon points="949.11 182.36 977.31 205.48 980.79 194.97 949.3 181.72 949.11 182.36"/><path class="cls-2" d="M937.33,152.8c3.36-20.69,22.32-34.82,42.36-31.56s34.88,17.46,30.18,43.35c-3.74,20.62-14.5,37.84-39.76,31.66C950.39,191.42,934,173.49,937.33,152.8Z"/><path class="cls-5" d="M874.89,756.61,764.58,860.67l41.66,84.46a28.77,28.77,0,0,0,25.79,16H934.74L933,924.54a31,31,0,0,0-26.58-29l-28.35-4-13.4-27.69,69.67-61.19Z"/><path d="M864,890.72a1.59,1.59,0,0,1-1.24-2.57L877.9,869H849.26a1.59,1.59,0,1,1,0-3.18h31.93a1.59,1.59,0,0,1,1.24,2.58l-12.68,16,26-13.33a1.59,1.59,0,1,1,1.45,2.83l-32.49,16.67A1.57,1.57,0,0,1,864,890.72Z"/><polygon points="903.48 829.67 934.29 802.61 874.89 756.61 858.75 771.83 903.48 829.67"/><path class="cls-6" d="M841.05,846.78a18.32,18.32,0,1,1-18.32-18.32A18.32,18.32,0,0,1,841.05,846.78Z"/><path d="M934.08,949.32H843.19a30.53,30.53,0,0,1-27.24-17l-40.52-82.57a1.59,1.59,0,0,1,2.86-1.39L818.8,931a27.33,27.33,0,0,0,24.39,15.19h90.89a1.59,1.59,0,0,1,0,3.18Z"/><circle class="cls-8" cx="974.5" cy="615" r="57.5"/><path class="cls-8" d="M1031.81,608.21c-4.26-134-20.92-178.44-20.92-178.44l5.14-9.22-20.3-54.82-104.57,24,6.15,28.73S921.89,541.88,918,601.71c-.19,2.82-.43,5.6-.72,8.37l114.55,6.73Q1031.94,612.51,1031.81,608.21Z"/><path class="cls-8" d="M917.3,610.08c-9,85.19-68.09,146.46-68.09,146.46l89.87,71.92s90.88-109.29,92.77-211.65Z"/><path class="cls-9" d="M885.55,784.85a1.57,1.57,0,0,1-.92-.29,1.61,1.61,0,0,1-.38-2.22c.76-1.06,75.43-107.45,81.21-195.05S925.28,376.18,924.81,375a1.59,1.59,0,1,1,3-1.12c.47,1.24,46.68,125.26,40.85,213.66s-81,195.62-81.78,196.69A1.58,1.58,0,0,1,885.55,784.85Z"/><path class="cls-9" d="M952.69,808.93a1.62,1.62,0,0,1-1-.36l-87.52-72.24a1.59,1.59,0,0,1,2-2.45l87.51,72.24a1.58,1.58,0,0,1,.22,2.23A1.6,1.6,0,0,1,952.69,808.93Z"/><path class="cls-9" d="M1015.86,696.61a1.7,1.7,0,0,1-.54-.09,1.59,1.59,0,0,1-1-2c11.35-31.21,16.68-60.21,15.86-86.22-4.2-132-20.66-177.49-20.83-177.93a1.63,1.63,0,0,1,.1-1.33l5.14-9.22a1.59,1.59,0,0,1,2.78,1.54l-4.8,8.61c2.09,6.25,16.85,54.42,20.78,178.23.84,26.41-4.56,55.82-16,87.41A1.6,1.6,0,0,1,1015.86,696.61Z"/><path class="cls-7" d="M967.78,221.92s52.49,32.58,58.55,105.83c5,60.14-30.28,58.92-49.11,62.28-21.63,3.86-76.91,15-76.91,15L885,249Z"/><path class="cls-7" d="M985.47,242.29s8.06-13.37-3.47-24.9c-7.71-7.72-48.9-28.31-72.57-12.74s-18.37,37.12-4.16,43.94S985.47,242.29,985.47,242.29Z"/><polygon class="cls-2" points="1007.41 162.05 1021 162.33 1004.38 174.27 1007.41 162.05"/><path d="M878.87,247.11l-8-26.92a3.68,3.68,0,0,1,2.4-4.55l9.16-2.94a3.69,3.69,0,0,1,4.44,1.91l12.07,25a3.69,3.69,0,0,1-2.06,5.06l-13.24,4.82A3.67,3.67,0,0,1,878.87,247.11Z"/><path d="M920.7,238.26s-27.54-3.08-52.21,12.88c-42.73,27.67-16,158.47-16,158.47Z"/><path d="M941.59,224.91l22,2.83s39.19,13.63,34.06,56.42S953,359.78,953,359.78Z"/><path d="M953.1,153.11s18.08,3.41,19.17-23.61c0,0,11.17,2.94,13.56,2.25s-1.18-4.78-1.18-4.78,12.87,6.53,15.4,5-3.18-8.32-10.63-11.87c-13-6.19-42.39-5.35-53.49,19.83-12.45,28.25,11.33,48.63,11.33,48.63L956,171.6Z"/><path class="cls-6" d="M862.73,336.22a1.58,1.58,0,0,1-1.58-1.45c-4-46.59,11.9-87.39,12.06-87.8a1.59,1.59,0,0,1,3,1.17c-.16.4-15.81,40.54-11.86,86.36a1.59,1.59,0,0,1-1.44,1.72Z"/><path class="cls-7" d="M831.45,528.57s25.15,8.14,45.51-28.13,92.52-144.37,105.8-198.86c9.83-40.35-.19-67.64-28.55-75.22-33-8.82-53.19,24.88-86.48,87.1-38,70.92-55.34,113-67.18,137.68-22.62,47.06-6.12,61.29-6.12,61.29Z"/><circle class="cls-7" cx="944" cy="270.4" r="43"/><path d="M1006.88,384.17a1.59,1.59,0,0,1-.68-3c18.89-8.89,23.84-44.53,12-86.66-11.7-41.74-32-54.82-32.17-54.94a1.59,1.59,0,0,1,1.69-2.7c.87.55,21.51,13.87,33.54,56.79,12.43,44.34,6.91,80.67-13.73,90.38A1.64,1.64,0,0,1,1006.88,384.17Z"/><path class="cls-10" d="M938.87,398.34a1.65,1.65,0,0,1-.74-.18,1.6,1.6,0,0,1-.66-2.15l27.15-51.49a1.59,1.59,0,1,1,2.81,1.48l-27.15,51.49A1.6,1.6,0,0,1,938.87,398.34Z"/><path d="M985.47,243.88a1.58,1.58,0,0,1-1-.35,84.68,84.68,0,0,0-24.4-12.87c-18.33-5.88-33.72-2.57-45.74,9.88a1.59,1.59,0,0,1-2.28-2.21c30.8-31.86,74,2.38,74.42,2.73a1.59,1.59,0,0,1-1,2.82Z"/><path class="cls-10" d="M1038.49,345a1.52,1.52,0,0,1-.82-.23,1.59,1.59,0,0,1-.55-2.18L1050,321.15a1.59,1.59,0,1,1,2.72,1.64l-12.9,21.41A1.59,1.59,0,0,1,1038.49,345Z"/><path class="cls-2" d="M965.09,161.07c-1.21-7.14-7.24-12-13.48-10.9s-10.32,7.8-9.12,14.93,7.24,12,13.48,10.9S966.29,168.2,965.09,161.07Z"/><path class="cls-11" d="M884.4,831.63,594.23,737.57a9.1,9.1,0,0,1-5.84-11.46L641,563.69a9.09,9.09,0,0,1,11.45-5.84l290.17,94.06a9.09,9.09,0,0,1,5.85,11.45L895.86,825.78A9.1,9.1,0,0,1,884.4,831.63Z"/><path d="M740.71,598.6a2.95,2.95,0,1,0,2.69-3.18A2.95,2.95,0,0,0,740.71,598.6Z"/><path d="M847.24,635.37a2.95,2.95,0,1,0,2.69-3.18A2.93,2.93,0,0,0,847.24,635.37Z"/><path d="M743.65,599.55a1.13,1.13,0,0,1-.54-.13,1.2,1.2,0,0,1-.53-1.6l28-55.2a1.19,1.19,0,1,1,2.13,1.07l-28,55.21A1.2,1.2,0,0,1,743.65,599.55Z"/><path d="M850.17,636.32a1.18,1.18,0,0,1-1-.65l-33.84-65.26a1.19,1.19,0,0,1,2.12-1.09l33.83,65.26a1.2,1.2,0,0,1-1.06,1.74Z"/><g class="cls-12"><path class="cls-6" d="M439.24,813.71l-1.09-1.08c21.75-21.76,38.37-27.25,54.44-32.55,15.9-5.25,32.35-10.68,53.84-32.18s26.93-37.93,32.18-53.84c5.3-16.07,10.79-32.69,32.54-54.44s38.37-27.24,54.44-32.54c15.9-5.25,32.34-10.68,53.84-32.17S746.35,537,751.6,521.08c5.3-16.08,10.79-32.69,32.54-54.45s38.37-27.23,54.44-32.54c15.9-5.24,32.34-10.67,53.83-32.16L893.5,403c-21.75,21.75-38.37,27.23-54.44,32.54-15.9,5.24-32.34,10.67-53.83,32.16s-26.92,37.94-32.17,53.84c-5.31,16.07-10.79,32.69-32.54,54.44s-38.37,27.24-54.44,32.54c-15.9,5.25-32.34,10.67-53.84,32.17s-26.92,37.94-32.17,53.84c-5.31,16.07-10.79,32.69-32.55,54.44s-38.37,27.24-54.44,32.55C477.18,786.79,460.73,792.22,439.24,813.71Z"/><path class="cls-6" d="M478.94,853.41l-1.09-1.08c21.75-21.76,38.37-27.25,54.44-32.55,15.9-5.25,32.35-10.68,53.84-32.18s26.93-37.93,32.18-53.83c5.3-16.08,10.79-32.7,32.54-54.45s38.37-27.24,54.44-32.54c15.9-5.25,32.34-10.68,53.84-32.17s26.92-37.94,32.17-53.83c5.3-16.08,10.79-32.69,32.54-54.45s38.37-27.23,54.44-32.54c15.9-5.24,32.34-10.67,53.83-32.16l1.09,1.09c-21.75,21.75-38.37,27.23-54.44,32.54-15.9,5.24-32.34,10.67-53.83,32.16S798,545.36,792.76,561.26C787.45,577.33,782,594,760.22,615.7s-38.37,27.24-54.44,32.54c-15.9,5.25-32.34,10.67-53.84,32.17S625,718.35,619.77,734.25c-5.31,16.07-10.79,32.69-32.55,54.44s-38.37,27.25-54.44,32.55C516.88,826.49,500.43,831.92,478.94,853.41Z"/><path class="cls-6" d="M558.34,932.81l-1.09-1.08C579,910,595.62,904.48,611.69,899.18c15.9-5.25,32.35-10.68,53.84-32.18s26.93-37.93,32.18-53.84c5.3-16.07,10.79-32.69,32.54-54.44s38.37-27.24,54.44-32.54c15.9-5.25,32.34-10.68,53.84-32.17s26.92-37.93,32.17-53.84c5.3-16.07,10.79-32.68,32.54-54.44s38.37-27.23,54.44-32.54C973.58,548,990,542.52,1011.51,521l1.09,1.08c-21.75,21.76-38.37,27.24-54.44,32.55-15.9,5.24-32.34,10.67-53.83,32.16s-26.92,37.94-32.17,53.84c-5.31,16.07-10.79,32.69-32.54,54.44s-38.37,27.24-54.44,32.54c-15.9,5.25-32.34,10.68-53.84,32.17s-26.92,37.94-32.17,53.84c-5.31,16.07-10.79,32.69-32.55,54.44s-38.37,27.24-54.44,32.55C596.28,905.89,579.83,911.32,558.34,932.81Z"/><path class="cls-6" d="M518.64,893.11,517.55,892c21.75-21.76,38.37-27.25,54.44-32.55,15.9-5.25,32.35-10.68,53.84-32.18s26.93-37.93,32.18-53.84c5.3-16.07,10.79-32.69,32.54-54.44s38.37-27.24,54.44-32.54c15.9-5.25,32.34-10.68,53.84-32.17s26.92-37.94,32.17-53.83c5.3-16.07,10.79-32.69,32.54-54.45S901.91,518.8,918,513.49c15.9-5.24,32.34-10.67,53.83-32.16l1.09,1.09c-21.75,21.75-38.37,27.23-54.44,32.54-15.9,5.24-32.34,10.67-53.83,32.16S837.71,585.06,832.46,601c-5.31,16.07-10.79,32.69-32.54,54.44s-38.37,27.24-54.44,32.54c-15.9,5.25-32.34,10.67-53.84,32.17S664.72,758.05,659.47,774c-5.31,16.07-10.79,32.69-32.55,54.44s-38.37,27.24-54.44,32.55C556.58,866.19,540.13,871.62,518.64,893.11Z"/><path class="cls-6" d="M598,972.52,597,971.43c21.75-21.76,38.37-27.25,54.44-32.55,15.91-5.25,32.35-10.68,53.84-32.18s26.93-37.93,32.18-53.84c5.3-16.07,10.79-32.69,32.54-54.44s38.37-27.24,54.44-32.54c15.9-5.25,32.34-10.68,53.84-32.17s26.92-37.93,32.17-53.83c5.3-16.08,10.79-32.69,32.54-54.45s38.37-27.23,54.44-32.54c15.9-5.24,32.34-10.67,53.83-32.16l1.09,1.08c-21.75,21.76-38.37,27.24-54.44,32.55C982,599.6,965.52,605,944,626.52s-26.92,37.94-32.17,53.84c-5.31,16.07-10.79,32.69-32.54,54.44S841,762,824.88,767.34C809,772.59,792.54,778,771,799.51s-26.92,37.94-32.17,53.84c-5.31,16.07-10.79,32.69-32.55,54.44S668,935,651.88,940.34C636,945.59,619.53,951,598,972.52Z"/><path class="cls-6" d="M637.74,1012.21l-1.09-1.08c21.75-21.76,38.37-27.25,54.44-32.55,15.9-5.25,32.35-10.68,53.84-32.18s26.93-37.93,32.18-53.83c5.3-16.08,10.79-32.7,32.54-54.45s38.37-27.24,54.44-32.54c15.9-5.25,32.34-10.68,53.84-32.17s26.92-37.93,32.17-53.83c5.3-16.08,10.79-32.69,32.54-54.45s38.37-27.23,54.44-32.54c15.9-5.24,32.34-10.67,53.83-32.16l1.09,1.08c-21.75,21.76-38.37,27.24-54.44,32.55-15.9,5.24-32.34,10.67-53.83,32.16s-26.92,37.94-32.17,53.84c-5.31,16.07-10.79,32.69-32.54,54.44S880.65,801.74,864.58,807c-15.9,5.25-32.34,10.68-53.84,32.17s-26.92,37.94-32.17,53.84c-5.31,16.07-10.79,32.69-32.55,54.44S707.65,974.74,691.58,980C675.68,985.29,659.23,990.72,637.74,1012.21Z"/></g><path class="cls-13" d="M761.44,772.36l-102.84-41a10.83,10.83,0,0,1-5.9-14.42l65-147.36a10.82,10.82,0,0,1,13.9-5.68l92.09,36.72a10.82,10.82,0,0,1,6.18,13.69L775.63,766A10.81,10.81,0,0,1,761.44,772.36Z"/><path d="M747.58,585a2.95,2.95,0,1,0,2.8-3.09A3,3,0,0,0,747.58,585Z"/><path d="M794.19,603a2.95,2.95,0,1,0,2.8-3.09A2.94,2.94,0,0,0,794.19,603Z"/><path d="M750.52,586a1.1,1.1,0,0,1-.52-.12,1.19,1.19,0,0,1-.54-1.59l21.9-44.44a1.19,1.19,0,0,1,2.13,1l-21.9,44.44A1.18,1.18,0,0,1,750.52,586Z"/><path d="M797.14,604a1.26,1.26,0,0,1-.59-.15,1.18,1.18,0,0,1-.45-1.62L814.91,569a1.19,1.19,0,1,1,2.07,1.18l-18.81,33.29A1.18,1.18,0,0,1,797.14,604Z"/><path class="cls-14" d="M746.15,748l-89.49-62.87c-4.16-2.92-4.38-9.73-.48-14.63l71.15-89.37c3.37-4.24,8.67-5.55,12.26-3l74,52c3.59,2.52,4.32,8.06,1.68,12.81L759.62,743.2C756.57,748.7,750.3,750.94,746.15,748Z"/><path d="M739,600.94a2.41,2.41,0,1,0,2.57-2.3A2.45,2.45,0,0,0,739,600.94Z"/><path d="M789.87,634a2.41,2.41,0,1,0,2.58-2.3A2.46,2.46,0,0,0,789.87,634Z"/><path d="M741.4,602.3a1.16,1.16,0,0,1-.54-.13,1.19,1.19,0,0,1-.52-1.6l31-60.72a1.19,1.19,0,1,1,2.12,1.08l-31,60.72A1.2,1.2,0,0,1,741.4,602.3Z"/><path d="M792.28,635.34a1.15,1.15,0,0,1-.41-.08,1.18,1.18,0,0,1-.71-1.52l23.67-64.6a1.19,1.19,0,1,1,2.23.82l-23.66,64.6A1.2,1.2,0,0,1,792.28,635.34Z"/><path class="cls-15" d="M991.56,180.49a5.71,5.71,0,0,1-4.32-1.65c-2.41-2.56-1.58-7.1-1.55-7.29a.63.63,0,0,1,.72-.49.61.61,0,0,1,.49.72s-.75,4.12,1.24,6.22c1,1.05,2.56,1.45,4.66,1.17a.61.61,0,0,1,.69.53.62.62,0,0,1-.53.69A11.53,11.53,0,0,1,991.56,180.49Z"/><path class="cls-15" d="M1001.87,144.93a.61.61,0,0,1-.61-.57c0-.24-.47-5.69-4.76-6.07-4.5-.4-8.18,3.49-8.21,3.53a.62.62,0,0,1-.91-.84c.17-.17,4.1-4.38,9.23-3.92,4.27.38,5.71,4.88,5.87,7.21a.6.6,0,0,1-.57.65Z"/><path class="cls-15" d="M994.76,153.3c-.72,2.33-2.39,3.88-3.73,3.47s-1.85-2.64-1.13-5,2.39-3.88,3.73-3.47S995.48,151,994.76,153.3Z"/><path class="cls-15" d="M995.78,151.25a5.76,5.76,0,0,1-3-.89.62.62,0,1,1,.69-1,4.21,4.21,0,0,0,3.18.55,4.93,4.93,0,0,0,2.87-3.11.62.62,0,0,1,.81-.32.61.61,0,0,1,.32.81c-.89,2.07-2.12,3.35-3.67,3.8A4.28,4.28,0,0,1,995.78,151.25Z"/><path class="cls-15" d="M950.8,169.48a.44.44,0,0,1-.44-.41c-.06-.85-.24-5.12,1.74-5.6,1.21-.29,2.49,1.11,3.39,2.43-.62-3.81-1.86-8.41-3.46-8.92a1.53,1.53,0,0,0-1.3.06,2.66,2.66,0,0,0-1,1.46.42.42,0,0,1-.53.32.43.43,0,0,1-.32-.53,3.43,3.43,0,0,1,1.44-2,2.45,2.45,0,0,1,2-.14c3.09,1,4.25,10.71,4.37,11.81a.44.44,0,0,1-.32.47.43.43,0,0,1-.51-.22c-.9-1.74-2.58-4.09-3.53-3.86s-1.19,2.87-1.07,4.68a.45.45,0,0,1-.41.47Z"/></svg>