<?xml version="1.0" encoding="utf-8"?>
<!-- Generator: Adobe Illustrator 26.3.1, SVG Export Plug-In . SVG Version: 6.00 Build 0)  -->
<svg version="1.1" id="Слой_1" xmlns="http://www.w3.org/2000/svg" xmlns:xlink="http://www.w3.org/1999/xlink" x="0px" y="0px"
	 viewBox="0 0 1080 1080" style="enable-background:new 0 0 1080 1080;" xml:space="preserve">
<style type="text/css">
	.st0{fill:#020203;}
</style>
<path class="st0" d="M833.9,439.6l-50.7,6.5l-9.8-30.3c0,0,9.3-6.5-4.2-9.8c-13.5-3.2-19.9-20.8-19.9-20.8
	c25.6,0.9,19.2-5.5,19.2-5.5s-10.1-5.5-19.2-10.1c-9.1-4.6-17.3-11.9-33.8-5.5c-16.5,6.4-70.3,21-70.3,21s6.4-124.2,0-133.3
	c-6.4-9.1-36.6-6.4-44.8-9.9c-8.1-3.6,0-14.6,7.3-13.7c7.3,0.9,32-33.9,36.5-50.2c4.6-16.4-7.3-49.3-33.8-54.8
	c-26.5-5.5-33.8-21-60.3-22.8c-26.4-1.8-70.3,23.8-74.8,52.1c-4.5,28.3,16.4,56.6,14.6,63c-1.8,6.4,8.2,22.8,8.2,22.8
	s-17.3,6.4-24.7,14.6c-7.3,8.2-5.5,113.2-5.5,113.2c-9.3-3.3-59-68.8-60.8-73.4s-12.1-9.8-12.1-16.3s-16.3-17.2-19.6-21.8
	c-3.3-4.6-21.8,18.1-18.1,31.6c3.7,13.5,38.6,22.3,38.6,22.3l39.5,68.3l-15,15.8l-14.9-10.7L282.5,492.1l98,86l42.3-72
	c0.9,40.4-17.6,175.2-17.6,175.2l43,38.6c-1.6,25.1,24.8,178,28.1,192.9c3.3,14.9,0.9,21.4-1.4,32.5c-2.3,11.2-29.1,33-26.3,43.2
	c2.8,10.2,18.1,14.5,27.9,14.5c9.8,0,17.6-13.5,18.6-26.1c0.9-12.6,10.7-29.8,12.1-42.8c1.4-13-3.7-23.3-5.1-27s0.9-46.5,2.8-72.9
	s-2.8-94.8-2.8-94.8L554,763c8.9,26.9,48.8,118,49.3,147.8c0.5,29.7,6,29.8,12.1,36.3c6,6.5,18.6,53,21.8,55.2
	c3.2,2.3,36.3-3.7,37.2-9.3c0.9-5.6-1.4-19.6-6.5-25.6c-5.1-6-36.3-44.5-40.4-59c-4.2-14.5-4.6-27.9-8.4-77.2
	c-3.7-49.3-39-112.9-39-112.9s3.7-224.5,0.9-267.2c-2.8-42.8,5.1-45.1,13-63.7c7.9-18.6,16.3-56.2,16.3-56.2s5.6,93.9,15.3,99.9
	c9.8,6,31.1-7.4,54.4-25.5c23.2-18.1,34.9-18.6,41.8-10.7c7,7.9,27.9,20.9,27.9,20.9l7,35.8l-82.7,0.5l-8.4,159.4l71.1-0.9l4.2,26
	l162.7-50.7L833.9,439.6z M446,413.2l-22.3-17.1l15-14.6c0,0,8,18.5,9.4,20.2S445.9,413.2,446,413.2L446,413.2z M760.3,451.4
	l-6.4-34.8h14.8l11.3,31.9L760.3,451.4z"/>
</svg>
