<?xml version="1.0" encoding="utf-8"?>
<!-- Generator: Adobe Illustrator 26.3.1, SVG Export Plug-In . SVG Version: 6.00 Build 0)  -->
<svg version="1.1" id="Слой_1" xmlns="http://www.w3.org/2000/svg" xmlns:xlink="http://www.w3.org/1999/xlink" x="0px" y="0px"
	 viewBox="0 0 1080 1080" style="enable-background:new 0 0 1080 1080;" xml:space="preserve">
<style type="text/css">
	.st0{fill-rule:evenodd;clip-rule:evenodd;fill:#020203;}
</style>
<path class="st0" d="M535.1,228.7c5-2.4,15.8-9.1,19.7-16.5c8.6-3.8,25.7-17.5,25.7-42.2c0-24.8-4.8-34.7-7.2-36.6
	c-1.3-12.9-11.7-38.6-42.2-38.6c-38.2,0-70,36.6-70,75.2c0,30.9,18,38.1,26.9,37.8c1.3,5.1,3.6,17.9,2,28.2
	c-1,6.1-15.4,12.1-30.9,18.5c-17.2,7.1-35.7,14.8-38.3,23.7c-3.9,13.5-4.6,64.1-4.4,87.7h4.4l2.4,39.4c-5.1,1.5-25.3-2.4-65.2-29.8
	c-8.6-3.2-28.1-8.5-37.3-4.8c-9.2,3.8-13.6,38.7-14.7,55.6h-19.4L266.3,567l49.3,54l64.5-3.7V455.8l-26.2-17.8
	c1.4-9,4.3-28.1,4.3-32.6c22.5,16.8,70.7,50.5,82.8,50.5c7.3,0,12-7.1,14.7-14.8c-6.2,29.6-14.7,75.1-14.7,95.6
	c0,30.4-9.6,124.3-13.6,128.5H441c-5.4,15.4-15.7,48.6-13.6,58.2c2.1,9.7,31.7,31.3,46.2,40.9c3.8,34.3,14.4,112.7,25.7,152.1
	c0.9,8.6,2.1,29.7,0,45.6c-0.7,5.4-1.7,10.9-2.7,16.2c-2.6,14.5-5,27.6-0.5,32.6c6.3,6.8,15.7,10,22.6,10c6.8,0,20.5-8.4,22.6-24.7
	c1.3-10.2-0.9-21.4-3.1-32.7c-1.3-6.8-2.6-13.6-3.2-20.3c-0.6-6.3-0.4-11.5-0.2-15.9c0.3-8.1,0.5-13.9-4-20.3
	c-5.5-8-6.8-13.5-6.8-15.2l3.1-86.6l24.1,25.2c-1.2,0.5-2.9,2.6,0,6.8c0.7,1,2,2.6,3.7,4.7c7.3,8.9,21.8,26.3,23,39.9
	c0.4,4,0.6,8.8,0.8,13.9c0.8,16.6,1.7,36,8.1,36.4c8.4,0.5,38.3-34.6,37.2-50.4c-0.8-12.6-9.4-26.2-13.6-31.5c4.5,1,13.6,2.5,13.6,0
	c0-0.7,0.2-2.4,0.4-4.7c0.8-8,2.4-23-0.4-26.3c-1.7-1.9-4.1-3.3-7.1-5c-3.6-2-8.2-4.6-13.3-9.2c-7.6-6.7-25.5-5.3-33.6-3.7
	c-9.1-18.7-29.7-58.3-39.3-67.2l-3.7-58.8c8.7-2.4,29.6-5.9,43,0c13.4,5.9,21,2.5,23.1,0c-3.3-8-9.4-27.8-7.3-42.5
	c0.3-1.8,0.6-4.3,1.1-7.3c4-27,14.2-96,10.5-119.6c-1.9-11.6-6.4-24.5-10.8-37c-5.6-15.7-11-31-10.7-42.7c0.4-16.9,6.8-50.8,10-65.6
	c2.6,17.1,10.1,54.2,18.9,65.6c11,14.2,88.7,69.8,98.1,72.4c7.6,2.1,27.3-1.9,36.2-4.2l-26.8,42h-50.4l-23.6,146.9l141.1,14.7h46.7
	l3.7-10l43-40.9l-27.3-129.6l-79.2,11.5l2.1-34.6c1.7-2.1,5-7,4.2-10c-0.7-2.5-0.4-5.8-0.2-8.7c0.1-1.3,0.2-2.4,0.2-3.4
	c0-0.1,0-0.1,0-0.2c0-3.3,0-11.8-22.6-7.7c-13.1,2.4-20.4,6.8-26,10.1c-4.3,2.6-7.6,4.5-11.7,4.5c-9.4,0-75-72.9-78.2-78.7
	c-2.5-4.6-10.8-31.3-14.7-44.1h2.6c-0.7-32.5-7.5-99.5-28.9-107c-15.2-5.4-30.1-5.6-41.2-5.9c-8.4-0.2-14.5-0.3-16.8-2.5
	C530.7,237,533.3,231.1,535.1,228.7z M353.2,406.4l-4.4,27.7l-24.2-5.5H316c-0.8-3.7-4.4-28.7,0-30.9c2.1-1,8.7,14.7,12.5,13.3
	c6.3-2.4,13.3-5,15.3-7C346.3,401.4,351.1,404.5,353.2,406.4z M723.7,534.3c9-13.3,27.7-40,30.5-40c3.6,0,5.5,36.8,4.8,40
	C758.3,536.9,735.2,535.4,723.7,534.3z"/>
</svg>
